<?xml version="1.0" encoding="UTF-8" standalone="no"?><svg xmlns="http://www.w3.org/2000/svg" xmlns:xlink="http://www.w3.org/1999/xlink" contentScriptType="application/ecmascript" contentStyleType="text/css" height="384px" preserveAspectRatio="none" style="width:282px;height:384px;" version="1.1" viewBox="0 0 282 384" width="282px" zoomAndPan="magnify"><defs/><g><!--entity Infrastructure--><polygon fill="#F8F8F8" points="105.5,336,105.5495,336.0495,107.4023,333.9023,109.5456,332.0456,111.5942,330.0942,113.3319,327.8319,115.5,326,115.5,325.9223,125.1667,325.5735,134.8333,325.6165,144.5,325.9318,154.1667,325.3086,163.8333,326.5536,173.5,325.3697,183.1667,325.8022,192.8333,326.4319,202.5,325.9142,212.1667,326.0682,221.8333,325.9681,231.5,326.1785,241.1667,326.2391,250.8333,326.5857,260.5,326,260.7237,326,260.7264,333.2703,260.5849,340.5406,260.6545,347.8109,260.7341,355.0813,260.5,362.3516,260.33,362.1816,258.6599,364.5115,256.4301,366.2817,254.6258,368.4774,252.3833,370.2349,250.5,372.3516,250.5,372.2831,240.8333,373.0932,231.1667,372.3028,221.5,372.4569,211.8333,372.6902,202.1667,372.7678,192.5,372.3477,182.8333,372.6388,173.1667,371.7791,163.5,372.6359,153.8333,372.8998,144.1667,372.7961,134.5,372.9646,124.8333,371.8685,115.1667,371.6994,105.5,372.3516,105.2929,372.3516,105.4804,365.0813,105.4345,357.8109,105.7271,350.5406,105.4418,343.2703,105.5,336" style="stroke: #000000; stroke-width: 1.5;"/><path d="M250.5,336 L250.5661,336.0661 L252.1698,334.0698 L254.1607,332.4607 L256.0256,330.7256 L257.4758,328.5758 L259.5,327 " fill="#F8F8F8" style="stroke: #000000; stroke-width: 1.5;"/><path d="M105.5,336 L105.5,336.2802 L115.1667,335.4476 L124.8333,336.2577 L134.5,336.5329 L144.1667,335.0488 L153.8333,335.8964 L163.5,335.4313 L173.1667,335.4887 L182.8333,335.9091 L192.5,335.0782 L202.1667,336.7382 L211.8333,335.1596 L221.5,335.7363 L231.1667,336.5759 L240.8333,335.8856 L250.5,336 " fill="#F8F8F8" style="stroke: #000000; stroke-width: 1.5;"/><path d="M250.5,336 L250.5934,336 L250.3159,343.2703 L250.5859,350.5406 L250.6776,357.8109 L250.1829,365.0813 L250.5,372.3516 " fill="#F8F8F8" style="stroke: #000000; stroke-width: 1.5;"/><text fill="#000000" font-family="sans-serif" font-size="13" lengthAdjust="spacingAndGlyphs" textLength="75" x="144.5" y="359.4951">Infrastructure</text><!--entity UI--><polygon fill="#F8F8F8" points="91,18,91.0495,18.0495,92.9023,15.9023,95.0456,14.0456,97.0942,12.0942,98.8319,9.8319,101,8,101,7.9223,111,7.5735,121,7.6165,131,7.9318,141,7.3086,151,8.5536,161,7.3697,171,7.8022,181,8.4319,191,7.9142,201,8.0682,211,7.9681,221,8.1785,231,8,231.0797,8,231.1952,15.2703,231.2237,22.5406,231.2264,29.8109,231.0849,37.0813,231,44.3516,231.1093,44.4608,229.1655,46.5171,226.83,48.1816,225.1599,50.5115,222.9301,52.2817,221,54.3516,221,54.8854,211,53.8565,201,54.2831,191,55.0932,181,54.3028,171,54.4569,161,54.6902,151,54.7678,141,54.3477,131,54.6388,121,53.7791,111,54.6359,101,54.8998,91,54.3516,91.1482,54.3516,91.2043,47.0813,90.839,39.8109,90.7826,32.5406,90.7929,25.2703,91,18" style="stroke: #000000; stroke-width: 1.5;"/><path d="M221,18 L221.0661,18.0661 L222.6698,16.0698 L224.6607,14.4607 L226.5256,12.7256 L227.9758,10.5758 L230,9 " fill="#F8F8F8" style="stroke: #000000; stroke-width: 1.5;"/><path d="M91,18 L91,18.2802 L101,17.4476 L111,18.2577 L121,18.5329 L131,17.0488 L141,17.8964 L151,17.4313 L161,17.4887 L171,17.9091 L181,17.0782 L191,18.7382 L201,17.1596 L211,17.7363 L221,18 " fill="#F8F8F8" style="stroke: #000000; stroke-width: 1.5;"/><path d="M221,18 L221.0934,18 L220.8159,25.2703 L221.0859,32.5406 L221.1776,39.8109 L220.6829,47.0813 L221,54.3516 " fill="#F8F8F8" style="stroke: #000000; stroke-width: 1.5;"/><text fill="#000000" font-family="sans-serif" font-size="13" lengthAdjust="spacingAndGlyphs" textLength="12" x="150" y="41.4951">UI</text><!--entity Application--><polygon fill="#F8F8F8" points="99,124,99.0495,124.0495,100.9023,121.9023,103.0456,120.0456,105.0942,118.0942,106.8319,115.8319,109,114,109,113.9223,119.3636,113.5735,129.7273,113.6165,140.0909,113.9318,150.4545,113.3086,160.8182,114.5536,171.1818,113.3697,181.5455,113.8022,191.9091,114.4319,202.2727,113.9142,212.6364,114.0682,223,114,222.9894,114,223.0595,121.2703,223.0797,128.5406,223.1952,135.8109,223.2237,143.0813,223,150.3516,223.1601,150.5117,221.06,152.4116,219.1093,154.4608,217.1655,156.5171,214.83,158.1816,213,160.3516,213,161.0301,202.6364,160.0551,192.2727,160.8854,181.9091,159.8565,171.5455,160.2831,161.1818,161.0932,150.8182,160.3028,140.4545,160.4569,130.0909,160.6902,119.7273,160.7678,109.3636,160.3477,99,160.3516,99.0957,160.3516,98.8092,153.0813,99.0948,145.8109,99.1827,138.5406,99.1482,131.2703,99,124" style="stroke: #000000; stroke-width: 1.5;"/><path d="M213,124 L213.0661,124.0661 L214.6698,122.0698 L216.6607,120.4607 L218.5256,118.7256 L219.9758,116.5758 L222,115 " fill="#F8F8F8" style="stroke: #000000; stroke-width: 1.5;"/><path d="M99,124 L99,124.2802 L109.3636,123.4476 L119.7273,124.2577 L130.0909,124.5329 L140.4545,123.0488 L150.8182,123.8964 L161.1818,123.4313 L171.5455,123.4887 L181.9091,123.9091 L192.2727,123.0782 L202.6364,124.7382 L213,124 " fill="#F8F8F8" style="stroke: #000000; stroke-width: 1.5;"/><path d="M213,124 L213.0934,124 L212.8159,131.2703 L213.0859,138.5406 L213.1776,145.8109 L212.6829,153.0813 L213,160.3516 " fill="#F8F8F8" style="stroke: #000000; stroke-width: 1.5;"/><text fill="#000000" font-family="sans-serif" font-size="13" lengthAdjust="spacingAndGlyphs" textLength="64" x="126" y="147.4951">Application</text><!--entity Domain--><polygon fill="#F8F8F8" points="6,230,6.0495,230.0495,7.9023,227.9023,10.0456,226.0456,12.0942,224.0942,13.8319,221.8319,16,220,16,219.9223,26.3636,219.5735,36.7273,219.6165,47.0909,219.9318,57.4545,219.3086,67.8182,220.5536,78.1818,219.3697,88.5455,219.8022,98.9091,220.4319,109.2727,219.9142,119.6364,220.0682,130,220,129.9894,220,130.0595,227.2703,130.0797,234.5406,130.1952,241.8109,130.2237,249.0813,130,256.3516,130.1601,256.5117,128.06,258.4116,126.1093,260.4608,124.1655,262.5171,121.83,264.1816,120,266.3516,120,267.0301,109.6364,266.0551,99.2727,266.8854,88.9091,265.8565,78.5455,266.2831,68.1818,267.0932,57.8182,266.3028,47.4545,266.4569,37.0909,266.6902,26.7273,266.7678,16.3636,266.3477,6,266.3516,6.0957,266.3516,5.8092,259.0813,6.0948,251.8109,6.1827,244.5406,6.1482,237.2703,6,230" style="stroke: #000000; stroke-width: 1.5;"/><path d="M120,230 L120.0661,230.0661 L121.6698,228.0698 L123.6607,226.4607 L125.5256,224.7256 L126.9758,222.5758 L129,221 " fill="#F8F8F8" style="stroke: #000000; stroke-width: 1.5;"/><path d="M6,230 L6,230.2802 L16.3636,229.4476 L26.7273,230.2577 L37.0909,230.5329 L47.4545,229.0488 L57.8182,229.8964 L68.1818,229.4313 L78.5455,229.4887 L88.9091,229.9091 L99.2727,229.0782 L109.6364,230.7382 L120,230 " fill="#F8F8F8" style="stroke: #000000; stroke-width: 1.5;"/><path d="M120,230 L120.0934,230 L119.8159,237.2703 L120.0859,244.5406 L120.1776,251.8109 L119.6829,259.0813 L120,266.3516 " fill="#F8F8F8" style="stroke: #000000; stroke-width: 1.5;"/><text fill="#000000" font-family="sans-serif" font-size="13" lengthAdjust="spacingAndGlyphs" textLength="44" x="41" y="253.4951">Domain</text><!--link UI to Infrastructure--><path d="M192.569,54.298 L192.6308,54.368 L195.1939,56.5841 L198.1194,59.2107 L200.9269,61.7037 L203.3463,63.7569 L206.3029,66.4188 L206.2779,66.395 L208.8671,69.1239 L211.5825,71.973 L214.3854,74.9055 L216.8864,77.5503 L219.8104,80.5981 L220.0071,80.746 L221.9854,83.6207 L224.5379,86.9272 L227.1606,90.2863 L229.3755,93.339 L231.8049,96.5529 L231.8318,96.567 L233.6314,100.0357 L235.5531,103.5687 L237.416,107.0707 L239.3913,110.6319 L241,114 L241.2824,114.096 L242.2195,116.8435 L242.9745,119.5291 L243.9961,122.3054 L245.0303,125.0858 L245.6685,127.7317 L245.3553,127.6632 L246.5796,130.6114 L246.7729,133.3339 L247.7499,136.228 L247.9198,138.9453 L248.7513,141.8076 L248.721,141.8041 L249.4049,144.7097 L249.3821,147.5347 L249.7762,150.4073 L250.2054,153.2838 L250.382,156.1316 L250.567,156.1356 L250.4427,159.0269 L250.6345,161.925 L250.3149,164.812 L250.7581,167.7155 L250.6941,170.6081 L250.9373,170.6227 L250.7167,173.5266 L250.6169,176.4377 L249.956,179.3151 L249.7063,182.2172 L249.8211,185.1412 L249.5473,185.1048 L249.4102,188.0365 L248.9646,190.9272 L248.9664,193.8774 L248.2043,196.726 L247.8963,199.635 L247.7468,199.6054 L247.4273,202.5265 L246.4685,205.321 L245.9643,208.2055 L245.905,211.178 L245.0534,213.9938 L245.241,214.0419 L244.6441,216.9005 L243.4639,219.6093 L243.0143,222.5058 L242.4056,225.3613 L241.4259,228.1216 L241.2253,228.0594 L240.5294,230.8692 L239.7678,233.6586 L239.1353,236.4881 L238.0011,239.1619 L237.1471,241.9227 L237.3406,241.9921 L235.9561,244.5154 L234.9452,247.1725 L234.4799,250.0254 L233.01,252.518 L232.3506,255.3012 L232.5604,255.3858 L231.3997,257.9076 L230.1679,260.4008 L229.0963,262.9586 L228.3952,265.6655 L227.1699,268.1614 L227.0483,268.1074 L226.3241,270.7172 L224.7728,272.9601 L224.1619,275.6202 L223.0215,278.0454 L221.7385,280.4073 L221.8366,280.4545 L220.6476,282.7235 L219.81,285.1616 L218.655,287.447 L217.3673,289.6685 L216.1898,291.9431 L216.2957,291.9977 L215.0318,294.0625 L214.2598,296.381 L212.9314,298.4126 L211.8319,300.5622 L210.6573,302.673 L210.4201,302.5431 L209.4228,304.5521 L208.7111,306.7176 L207.5952,308.6617 L206.3344,310.5264 L205.2745,312.5012 L205.1505,312.4296 L204.1704,314.2186 L202.9706,315.8809 L202.3744,317.8917 L201.4795,319.7301 L200.175,321.3318 " fill="none" style="stroke: #383838; stroke-width: 1.0; stroke-dasharray: 7.0,7.0;"/><polygon fill="#383838" points="197.542,325.7248,197.5823,325.7821,199.0742,324.4792,200.8023,323.5124,202.4534,322.4361,203.8517,321,205.6001,320.062,205.5938,320.0369,204.4681,320.1989,203.3741,320.4877,202.3021,320.8645,201.1542,320.9379,200.1127,321.4363,200.2917,321.4811,199.634,320.2877,199.499,319.2253,199.4278,318.1788,198.9855,317.0394,198.7384,315.9489,198.761,315.9516,198.4886,317.9028,198.3189,319.8665,198.0997,321.8241,197.9751,323.7933,197.542,325.7248" style="stroke: #383838; stroke-width: 1.0;"/><!--link UI to Domain--><path d="M131.534,54.108 L131.5967,54.1772 L128.6994,56.4288 L126.1699,59.0862 L123.5206,61.6114 L120.4775,63.7022 L117.9795,66.3944 L117.9545,66.3706 L115.1232,69.1258 L112.4182,72.0009 L109.801,74.9594 L106.8813,77.6305 L104.3852,80.7041 L104.5751,80.8605 L102.8834,82.087 L101.7463,83.7702 L100.6769,85.509 L99.2138,86.9237 L97.9577,88.5089 L97.9822,88.5268 L96.751,90.1365 L95.6314,91.8277 L94.4579,93.4795 L93.3871,95.2064 L91.9817,96.6888 L92.2401,96.8378 L90.2469,100.3019 L88.0871,103.6698 L86.1712,107.1785 L84.2667,110.6937 L82,114 L81.7029,113.8796 L81.273,116.5971 L79.865,118.9183 L79.2005,121.5407 L77.7703,123.8529 L76.9677,126.4194 L76.9386,126.4106 L76.5,129.1172 L75.3803,131.6189 L74.6625,134.2414 L73.9784,136.8742 L73.051,139.4337 L73.2317,139.4733 L72.4641,142.0993 L72.0054,144.793 L71.047,147.3771 L70.8338,150.1247 L70.1252,152.7636 L70.366,152.8007 L69.9087,155.4669 L69.5709,158.1516 L68.6776,160.7507 L68.1915,163.4125 L68.0661,166.1299 L67.7913,166.1023 L67.7767,168.7519 L67.4524,171.3705 L67.5773,174.0342 L66.9353,176.6209 L66.7492,179.2533 L66.5969,179.2449 L66.7106,181.7792 L66.1736,184.2774 L66.0993,186.8013 L66.4778,189.3504 L66.0499,191.8546 L66.2435,191.858 L66.3351,194.2203 L65.8246,196.5721 L66.0682,198.9371 L66.1475,201.2992 L65.844,203.6546 L65.6341,203.6514 L65.834,205.7978 L65.9651,207.9432 L66.2314,210.0906 L65.9725,212.2301 L66.0069,214.374 " fill="none" style="stroke: #383838; stroke-width: 1.0; stroke-dasharray: 7.0,7.0;"/><polygon fill="#383838" points="66.2017,219.553,66.2667,219.579,66.805,217.6728,67.7246,215.9191,68.52,214.1158,68.9071,212.1491,69.8594,210.4085,69.8404,210.3909,68.9859,211.1415,68.2272,211.9808,67.535,212.8819,66.6134,213.5703,66.0131,214.5566,66.1386,214.6919,65.0407,213.6332,64.3091,212.9697,63.6222,212.3544,62.6753,211.4586,61.8651,210.7103,61.8855,210.7203,62.7229,212.4741,63.6532,214.2736,64.5386,216.051,65.5097,217.8704,66.2017,219.553" style="stroke: #383838; stroke-width: 1.0;"/><!--link Domain to Infrastructure--><path d="M92.3885,266.056 L92.5765,266.2639 L99.8322,272.713 L108.1897,280.3806 L116.1885,287.6515 L123.0072,293.6175 L131.3899,301.3128 L138.8922,308.0347 L146.7448,315.1439 L154.902,322.5899 " fill="none" style="stroke: #383838; stroke-width: 1.0; stroke-dasharray: 7.0,7.0;"/><polygon fill="#383838" points="158.647,325.9761,158.711,326.0045,157.7224,324.1194,157.1093,322.4007,156.3738,320.6279,155.2363,318.6767,154.6554,316.9724,154.6295,316.9711,154.5701,318.0952,154.6411,319.2259,154.8027,320.3611,154.6519,321.4806,154.9388,322.6221,154.948,322.8064,153.7983,322.469,152.6756,322.6697,151.5561,322.936,150.4175,322.8203,149.289,322.9055,149.2961,322.9271,151.1573,323.5095,153.0508,324.1903,154.9287,324.8236,156.8363,325.5475,158.647,325.9761" style="stroke: #383838; stroke-width: 1.0;"/><!--link Application to Infrastructure--><path d="M163.313,160.077 L163.5917,160.1062 L163.8154,170.0596 L165.6729,180.1842 L166.9984,190.253 L166.5742,200.1385 L168.469,210.267 L169.0583,220.2587 L170.1671,230.3048 L171.6371,240.3888 L171.8625,250.3424 L174.5653,260.5555 L174.0471,270.4312 L175.6725,280.5314 L177.5594,290.659 L177.9246,300.6273 L179.1807,310.6888 L180.142,320.7195 " fill="none" style="stroke: #383838; stroke-width: 1.0; stroke-dasharray: 7.0,7.0;"/><polygon fill="#383838" points="180.685,325.9039,180.7516,325.9255,181.1617,323.9877,181.9625,322.1767,182.636,320.3243,182.8912,318.3362,183.7254,316.5361,183.7053,316.5198,182.9027,317.3256,182.2015,318.2136,181.5709,319.1588,180.6972,319.907,180.164,320.9311,180.2802,321.0745,179.1527,320.0556,178.3645,319.4553,177.6176,318.9061,176.63,318.0598,175.769,317.3697,175.7887,317.381,176.743,319.0712,177.787,320.8131,178.7877,322.53,179.871,324.2945,180.685,325.9039" style="stroke: #383838; stroke-width: 1.0;"/><!--link UI to Application--><path d="M161,54.056 L161.2802,54.056 L160.4476,65.0132 L161.2577,75.9704 L161.5329,86.9276 L160.0488,97.8848 L161,108.842 " fill="none" style="stroke: #383838; stroke-width: 1.0; stroke-dasharray: 7.0,7.0;"/><polygon fill="#383838" points="161,113.976,161.064,114.0045,161.6738,112.1199,162.6589,110.4022,163.5217,108.6301,163.9827,106.6794,165,104.976,164.9817,104.9577,164.0995,105.6755,163.3096,106.4856,162.5839,107.3599,161.637,108.013,161,108.976,161.1305,109.1065,160.0514,108.0274,159.3534,107.3294,158.7018,106.6778,157.7798,105.7558,157,104.976,157.0208,104.9852,157.7903,106.7717,158.6544,108.6002,159.4728,110.4084,160.3784,112.2553,161,113.976" style="stroke: #383838; stroke-width: 1.0;"/><!--link Application to Domain--><path d="M141.277,160.056 L141.4859,160.2428 L134.5944,166.7003 L128.9275,174.2528 L122.8618,181.4487 L115.4847,187.4719 L109.8456,195.0494 L103.2282,201.7519 L97.0001,208.8027 L91.1104,216.156 " fill="none" style="stroke: #383838; stroke-width: 1.0; stroke-dasharray: 7.0,7.0;"/><polygon fill="#383838" points="87.6945,219.976,87.7233,220.0399,89.434,219.0415,91.3133,218.4177,93.1377,217.6719,94.7816,216.5251,96.6754,215.9334,96.674,215.9075,95.5379,215.8545,94.4091,215.9319,93.2853,216.1,92.1441,215.9556,91.0274,216.2488,91.2116,216.2591,90.7545,215.1075,90.8354,213.9859,90.9819,212.868,90.7465,211.7288,90.712,210.6008,90.7336,210.6077,90.0983,212.4726,89.5616,214.3691,88.9774,216.2503,88.4838,218.1608,87.6945,219.976" style="stroke: #383838; stroke-width: 1.0;"/><!--
@startuml
skinparam Handwritten true
skinparam monochrome true	
skinparam shadowing false
node "<size:13>      Infrastructure    </size>" as Infrastructure
node "<size:13>           UI           </size>" as UI
node "<size:13>   Application  </size>" as Application
node "<size:13>     Domain     </size>" as Domain
Infrastructure <.up. UI
Domain <.up. UI
Infrastructure <.up. Domain
Infrastructure <.up. Application
UI .down.> Application
Application .down.> Domain
@enduml

PlantUML version 1.2018.12(Sun Oct 21 08:15:15 BRST 2018)
(GPL source distribution)
Java Runtime: Java(TM) SE Runtime Environment
JVM: Java HotSpot(TM) 64-Bit Server VM
Java Version: 1.8.0_162-b12
Operating System: Windows 10
OS Version: 10.0
Default Encoding: UTF-8
Language: en
Country: US
--></g></svg>