<?xml version="1.0" encoding="UTF-8" standalone="no"?><svg xmlns="http://www.w3.org/2000/svg" xmlns:xlink="http://www.w3.org/1999/xlink" contentScriptType="application/ecmascript" contentStyleType="text/css" height="283px" preserveAspectRatio="none" style="width:212px;height:283px;" version="1.1" viewBox="0 0 212 283" width="212px" zoomAndPan="magnify"><defs/><g><!--entity inf--><polygon fill="#F8F8F8" points="6,18,6.0495,18.0495,7.9023,15.9023,10.0456,14.0456,12.0942,12.0942,13.8319,9.8319,16,8,16,7.9223,26.1429,7.5735,36.2857,7.6165,46.4286,7.9318,56.5714,7.3086,66.7143,8.5536,76.8571,7.3697,87,7.8022,97.1429,8.4319,107.2857,7.9142,117.4286,8.0682,127.5714,7.9681,137.7143,8.1785,147.8571,8.2391,158,8,158.1952,8,158.2237,15.5219,158.2264,23.0438,158.0849,30.5656,158.1545,38.0875,158,45.6094,158.1655,45.7749,155.83,47.4394,154.1599,49.7693,151.9301,51.5395,150.1258,53.7352,148,55.6094,148,55.1144,137.8571,55.5409,127.7143,56.351,117.5714,55.5606,107.4286,55.7147,97.2857,55.948,87.1429,56.0256,77,55.6055,66.8571,55.8966,56.7143,55.037,46.5714,55.8938,36.4286,56.1576,26.2857,56.0539,16.1429,56.2224,6,55.6094,5.839,55.6094,5.7826,48.0875,5.7929,40.5656,5.9804,33.0438,5.9345,25.5219,6,18" style="stroke: #000000; stroke-width: 1.5;"/><path d="M148,18 L148.0661,18.0661 L149.6698,16.0698 L151.6607,14.4607 L153.5256,12.7256 L154.9758,10.5758 L157,9 " fill="#F8F8F8" style="stroke: #000000; stroke-width: 1.5;"/><path d="M6,18 L6,18.2802 L16.1429,17.4476 L26.2857,18.2577 L36.4286,18.5329 L46.5714,17.0488 L56.7143,17.8964 L66.8571,17.4313 L77,17.4887 L87.1429,17.9091 L97.2857,17.0782 L107.4286,18.7382 L117.5714,17.1596 L127.7143,17.7363 L137.8571,18.5759 L148,18 " fill="#F8F8F8" style="stroke: #000000; stroke-width: 1.5;"/><path d="M148,18 L148.0934,18 L147.8159,25.5219 L148.0859,33.0438 L148.1776,40.5656 L147.6829,48.0875 L148,55.6094 " fill="#F8F8F8" style="stroke: #000000; stroke-width: 1.5;"/><text fill="#000000" font-family="sans-serif" font-size="14" lengthAdjust="spacingAndGlyphs" textLength="112" x="21" y="42.5332">Infrastructure + UI</text><!--entity Application--><polygon fill="#F8F8F8" points="81.5,126,81.5495,126.0495,83.4023,123.9023,85.5456,122.0456,87.5942,120.0942,89.3319,117.8319,91.5,116,91.5,115.9223,101.4,115.5735,111.3,115.6165,121.2,115.9318,131.1,115.3086,141,116.5536,150.9,115.3697,160.8,115.8022,170.7,116.4319,180.6,115.9142,190.5,116,190.5227,116,190.4894,123.5219,190.5595,131.0438,190.5797,138.5656,190.6952,146.0875,190.5,153.6094,190.6582,153.7675,188.6601,155.7695,186.56,157.6694,184.6093,159.7186,182.6655,161.7749,180.5,163.6094,180.5,162.8882,170.6,164.2879,160.7,163.3129,150.8,164.1432,140.9,163.1144,131,163.5409,121.1,164.351,111.2,163.5606,101.3,163.7147,91.4,163.948,81.5,163.6094,81.6387,163.6094,81.4987,156.0875,81.5957,148.5656,81.3092,141.0438,81.5948,133.5219,81.5,126" style="stroke: #000000; stroke-width: 1.5;"/><path d="M180.5,126 L180.5661,126.0661 L182.1698,124.0698 L184.1607,122.4607 L186.0256,120.7256 L187.4758,118.5758 L189.5,117 " fill="#F8F8F8" style="stroke: #000000; stroke-width: 1.5;"/><path d="M81.5,126 L81.5,126.2802 L91.4,125.4476 L101.3,126.2577 L111.2,126.5329 L121.1,125.0488 L131,125.8964 L140.9,125.4313 L150.8,125.4887 L160.7,125.9091 L170.6,125.0782 L180.5,126 " fill="#F8F8F8" style="stroke: #000000; stroke-width: 1.5;"/><path d="M180.5,126 L180.5934,126 L180.3159,133.5219 L180.5859,141.0438 L180.6776,148.5656 L180.1829,156.0875 L180.5,163.6094 " fill="#F8F8F8" style="stroke: #000000; stroke-width: 1.5;"/><text fill="#000000" font-family="sans-serif" font-size="14" lengthAdjust="spacingAndGlyphs" textLength="69" x="96.5" y="150.5332">Application</text><!--entity Domain--><polygon fill="#F8F8F8" points="38,234,38.0495,234.0495,39.9023,231.9023,42.0456,230.0456,44.0942,228.0942,45.8319,225.8319,48,224,48,223.9223,57.75,223.5735,67.5,223.6165,77.25,223.9318,87,223.3086,96.75,224.5536,106.5,223.3697,116.25,223.8022,126,224,126.144,224,125.9714,231.5219,126.0227,239.0438,125.9894,246.5656,126.0595,254.0875,126,261.6094,126.0564,261.6657,124.138,263.7474,122.1582,265.7675,120.1601,267.7695,118.06,269.6694,116,271.6094,116,272.073,106.25,272.3116,96.5,270.8882,86.75,272.2879,77,271.3129,67.25,272.1432,57.5,271.1144,47.75,271.5409,38,271.6094,38.2472,271.6094,37.9838,264.0875,38.0351,256.5656,38.1129,249.0438,38.1387,241.5219,38,234" style="stroke: #000000; stroke-width: 1.5;"/><path d="M116,234 L116.0661,234.0661 L117.6698,232.0698 L119.6607,230.4607 L121.5256,228.7256 L122.9758,226.5758 L125,225 " fill="#F8F8F8" style="stroke: #000000; stroke-width: 1.5;"/><path d="M38,234 L38,234.2802 L47.75,233.4476 L57.5,234.2577 L67.25,234.5329 L77,233.0488 L86.75,233.8964 L96.5,233.4313 L106.25,233.4887 L116,234 " fill="#F8F8F8" style="stroke: #000000; stroke-width: 1.5;"/><path d="M116,234 L116.0934,234 L115.8159,241.5219 L116.0859,249.0438 L116.1776,256.5656 L115.6829,264.0875 L116,271.6094 " fill="#F8F8F8" style="stroke: #000000; stroke-width: 1.5;"/><text fill="#000000" font-family="sans-serif" font-size="14" lengthAdjust="spacingAndGlyphs" textLength="48" x="53" y="258.5332">Domain</text><!--link inf to Application--><path d="M93.7172,56 L93.9669,56.1272 L97.8921,64.9107 L103.2811,74.44 L108.1934,83.7264 L111.5382,92.2142 L116.9605,101.7605 L121.72,110.969 " fill="none" style="stroke: #383838; stroke-width: 1.0;"/><polygon fill="#383838" points="124.119,115.678,124.189,115.6817,123.8768,113.7037,123.9748,111.7474,123.9392,109.784,123.4644,107.7974,123.5976,105.843,123.573,105.8349,123.1128,106.875,122.7767,107.9554,122.527,109.0639,121.9798,110.0756,121.8493,111.2228,121.9063,111.3984,120.7084,110.6734,119.677,110.4608,118.6658,110.3108,117.5365,109.797,116.4694,109.4745,116.4837,109.4922,117.9926,110.7069,119.5667,112.0021,121.1094,113.2585,122.712,114.5889,124.119,115.678" style="stroke: #383838; stroke-width: 1.0;"/><!--link Application to Domain--><path d="M124.283,164 L124.5327,164.1272 L119.1236,172.9107 L115.1783,182.4399 L110.7564,191.7263 L104.7668,200.2141 L100.8549,209.7603 L96.2801,218.9688 " fill="none" style="stroke: #383838; stroke-width: 1.0;"/><polygon fill="#383838" points="93.8808,223.6784,93.9249,223.7328,95.3237,222.3304,96.9812,221.247,98.5545,220.0598,99.8507,218.5309,101.5304,217.4749,101.5224,217.4503,100.4105,217.6894,99.3389,218.0527,98.2955,218.5023,97.1553,218.6544,96.1505,219.2232,96.326,219.2803,95.601,218.0823,95.3885,217.0509,95.2384,216.0398,94.7246,214.9105,94.4022,213.8434,94.4249,213.8446,94.2873,215.8098,94.253,217.7805,94.1689,219.7486,94.18,221.7217,93.8808,223.6784" style="stroke: #383838; stroke-width: 1.0;"/><!--link inf to Domain--><path d="M75.6171,56.038 L75.7078,56.0602 L74.7793,58.6862 L74.3827,61.4423 L73.8129,64.1561 L72.6735,66.7304 L72.3226,69.4977 L72.2888,69.4903 L71.4816,72.4625 L70.8444,75.4718 L70.3256,78.5069 L69.3991,81.4531 L69.0436,84.5239 L69.2856,84.5683 L68.1887,87.628 L67.7985,90.8175 L67.4945,94.0228 L66.6889,97.136 L66.147,100.2976 L66.1771,100.3017 L65.7036,103.4362 L65.3668,106.5893 L64.9641,109.7334 L64.6873,112.8948 L64,116 L64.2969,116.0282 L64.0447,118.7217 L63.6011,121.3971 L63.4377,124.099 L63.2875,126.8022 L62.721,129.4659 L62.4008,129.4529 L62.9371,131.5849 L62.4188,133.6742 L62.7023,135.7959 L62.1602,137.8843 L62.2947,140 L62.2643,139.9988 L62.7093,142.1202 L62.4436,144.2128 L62.5973,146.3224 L62.7862,148.4334 L62.721,150.5341 L62.9052,150.5516 L62.9751,153.2271 L63.3597,155.9325 L63.2351,158.5896 L63.87,161.3188 L64,164 L64.2415,164.0324 L64.5736,166.8444 L65.0255,169.6724 L64.9204,172.4258 L65.2236,175.234 L65.8887,178.0906 L65.6167,178.0423 L66.3676,180.9291 L66.8121,183.7614 L67.7011,186.6727 L67.8312,189.4492 L68.4123,192.3059 L68.2631,192.2745 L69.0901,195.076 L69.2793,197.7433 L69.9221,200.506 L71.0086,203.3621 L71.3049,206.052 L71.4934,206.0965 L72.2217,208.6636 L72.3639,211.0923 L73.2402,213.6944 L73.9566,216.2587 L74.3003,218.735 " fill="none" style="stroke: #383838; stroke-width: 1.0;"/><polygon fill="#383838" points="75.6171,223.9616,75.6861,223.9736,75.817,221.9971,76.3526,220.0908,76.7563,218.1616,76.7267,216.1574,77.297,214.2571,77.2748,214.2438,76.5947,215.1554,76.0267,216.1339,75.5366,217.1591,74.778,218.0237,74.3955,219.1131,74.4902,219.2715,73.3165,218.3525,72.4193,217.8959,71.5557,217.4958,70.496,216.7674,69.5395,216.2116,69.5574,216.2256,70.7466,217.755,72.0173,219.3483,73.2488,220.9108,74.5552,222.5321,75.6171,223.9616" style="stroke: #383838; stroke-width: 1.0;"/><!--
@startuml
skinparam Handwritten true
skinparam monochrome true	
skinparam packageStyle rect	
skinparam shadowing false
node "Infrastructure + UI" as inf
node Application
node Domain

inf -down-> Application
Application -down-> Domain
inf -> Domain
@enduml

PlantUML version 1.2018.12(Sun Oct 21 08:15:15 BRST 2018)
(GPL source distribution)
Java Runtime: Java(TM) SE Runtime Environment
JVM: Java HotSpot(TM) 64-Bit Server VM
Java Version: 1.8.0_162-b12
Operating System: Windows 10
OS Version: 10.0
Default Encoding: UTF-8
Language: en
Country: US
--></g></svg>