<?xml version="1.0" encoding="UTF-8" standalone="no"?><svg xmlns="http://www.w3.org/2000/svg" xmlns:xlink="http://www.w3.org/1999/xlink" contentScriptType="application/ecmascript" contentStyleType="text/css" height="384px" preserveAspectRatio="none" style="width:306px;height:384px;" version="1.1" viewBox="0 0 306 384" width="306px" zoomAndPan="magnify"><defs/><g><!--entity Infrastructure--><polygon fill="#F8F8F8" points="113.5,18,113.5495,18.0495,115.4023,15.9023,117.5456,14.0456,119.5942,12.0942,121.3319,9.8319,123.5,8,123.5,7.9223,133.5625,7.5735,143.625,7.6165,153.6875,7.9318,163.75,7.3086,173.8125,8.5536,183.875,7.3697,193.9375,7.8022,204,8.4319,214.0625,7.9142,224.125,8.0682,234.1875,7.9681,244.25,8.1785,254.3125,8.2391,264.375,8.5857,274.4375,8.6711,284.5,8,284.7264,8,284.5849,15.2703,284.6545,22.5406,284.7341,29.8109,284.2596,37.0813,284.5,44.3516,284.6599,44.5115,282.4301,46.2817,280.6258,48.4774,278.3833,50.2349,276.4839,52.3354,274.5,54.3516,274.5,55.0932,264.4375,54.3028,254.375,54.4569,244.3125,54.6902,234.25,54.7678,224.1875,54.3477,214.125,54.6388,204.0625,53.7791,194,54.6359,183.9375,54.8998,173.875,54.7961,163.8125,54.9646,153.75,53.8685,143.6875,53.6994,133.625,53.7302,123.5625,54.2927,113.5,54.3516,113.4345,54.3516,113.7271,47.0813,113.4418,39.8109,113.3856,32.5406,113.5761,25.2703,113.5,18" style="stroke: #000000; stroke-width: 1.5;"/><path d="M274.5,18 L274.5661,18.0661 L276.1698,16.0698 L278.1607,14.4607 L280.0256,12.7256 L281.4758,10.5758 L283.5,9 " fill="#F8F8F8" style="stroke: #000000; stroke-width: 1.5;"/><path d="M113.5,18 L113.5,18.2802 L123.5625,17.4476 L133.625,18.2577 L143.6875,18.5329 L153.75,17.0488 L163.8125,17.8964 L173.875,17.4313 L183.9375,17.4887 L194,17.9091 L204.0625,17.0782 L214.125,18.7382 L224.1875,17.1596 L234.25,17.7363 L244.3125,18.5759 L254.375,17.8856 L264.4375,18.091 L274.5,18 " fill="#F8F8F8" style="stroke: #000000; stroke-width: 1.5;"/><path d="M274.5,18 L274.5934,18 L274.3159,25.2703 L274.5859,32.5406 L274.6776,39.8109 L274.1829,47.0813 L274.5,54.3516 " fill="#F8F8F8" style="stroke: #000000; stroke-width: 1.5;"/><text fill="#000000" font-family="sans-serif" font-size="13" lengthAdjust="spacingAndGlyphs" textLength="75" x="156.5" y="41.4951">Infrastructure</text><!--entity UI--><polygon fill="#F8F8F8" points="6,124,6.0495,124.0495,7.9023,121.9023,10.0456,120.0456,12.0942,118.0942,13.8319,115.8319,16,114,16,113.9223,26,113.5735,36,113.6165,46,113.9318,56,113.3086,66,114.5536,76,113.3697,86,113.8022,96,114.4319,106,113.9142,116,114.0682,126,113.9681,136,114.1785,146,114,146.0797,114,146.1952,121.2703,146.2237,128.5406,146.2264,135.8109,146.0849,143.0813,146,150.3516,146.1093,150.4608,144.1655,152.5171,141.83,154.1816,140.1599,156.5115,137.9301,158.2817,136,160.3516,136,160.8854,126,159.8565,116,160.2831,106,161.0932,96,160.3028,86,160.4569,76,160.6902,66,160.7678,56,160.3477,46,160.6388,36,159.7791,26,160.6359,16,160.8998,6,160.3516,6.1482,160.3516,6.2043,153.0813,5.839,145.8109,5.7826,138.5406,5.7929,131.2703,6,124" style="stroke: #000000; stroke-width: 1.5;"/><path d="M136,124 L136.0661,124.0661 L137.6698,122.0698 L139.6607,120.4607 L141.5256,118.7256 L142.9758,116.5758 L145,115 " fill="#F8F8F8" style="stroke: #000000; stroke-width: 1.5;"/><path d="M6,124 L6,124.2802 L16,123.4476 L26,124.2577 L36,124.5329 L46,123.0488 L56,123.8964 L66,123.4313 L76,123.4887 L86,123.9091 L96,123.0782 L106,124.7382 L116,123.1596 L126,123.7363 L136,124 " fill="#F8F8F8" style="stroke: #000000; stroke-width: 1.5;"/><path d="M136,124 L136.0934,124 L135.8159,131.2703 L136.0859,138.5406 L136.1776,145.8109 L135.6829,153.0813 L136,160.3516 " fill="#F8F8F8" style="stroke: #000000; stroke-width: 1.5;"/><text fill="#000000" font-family="sans-serif" font-size="13" lengthAdjust="spacingAndGlyphs" textLength="12" x="65" y="147.4951">UI</text><!--entity Application--><polygon fill="#F8F8F8" points="93,230,93.0495,230.0495,94.9023,227.9023,97.0456,226.0456,99.0942,224.0942,100.8319,221.8319,103,220,103,219.9223,113.3636,219.5735,123.7273,219.6165,134.0909,219.9318,144.4545,219.3086,154.8182,220.5536,165.1818,219.3697,175.5455,219.8022,185.9091,220.4319,196.2727,219.9142,206.6364,220.0682,217,220,216.9894,220,217.0595,227.2703,217.0797,234.5406,217.1952,241.8109,217.2237,249.0813,217,256.3516,217.1601,256.5117,215.06,258.4116,213.1093,260.4608,211.1655,262.5171,208.83,264.1816,207,266.3516,207,267.0301,196.6364,266.0551,186.2727,266.8854,175.9091,265.8565,165.5455,266.2831,155.1818,267.0932,144.8182,266.3028,134.4545,266.4569,124.0909,266.6902,113.7273,266.7678,103.3636,266.3477,93,266.3516,93.0957,266.3516,92.8092,259.0813,93.0948,251.8109,93.1827,244.5406,93.1482,237.2703,93,230" style="stroke: #000000; stroke-width: 1.5;"/><path d="M207,230 L207.0661,230.0661 L208.6698,228.0698 L210.6607,226.4607 L212.5256,224.7256 L213.9758,222.5758 L216,221 " fill="#F8F8F8" style="stroke: #000000; stroke-width: 1.5;"/><path d="M93,230 L93,230.2802 L103.3636,229.4476 L113.7273,230.2577 L124.0909,230.5329 L134.4545,229.0488 L144.8182,229.8964 L155.1818,229.4313 L165.5455,229.4887 L175.9091,229.9091 L186.2727,229.0782 L196.6364,230.7382 L207,230 " fill="#F8F8F8" style="stroke: #000000; stroke-width: 1.5;"/><path d="M207,230 L207.0934,230 L206.8159,237.2703 L207.0859,244.5406 L207.1776,251.8109 L206.6829,259.0813 L207,266.3516 " fill="#F8F8F8" style="stroke: #000000; stroke-width: 1.5;"/><text fill="#000000" font-family="sans-serif" font-size="13" lengthAdjust="spacingAndGlyphs" textLength="64" x="120" y="253.4951">Application</text><!--entity Domain--><polygon fill="#F8F8F8" points="150,336,150.0495,336.0495,151.9023,333.9023,154.0456,332.0456,156.0942,330.0942,157.8319,327.8319,160,326,160,325.9223,170.3636,325.5735,180.7273,325.6165,191.0909,325.9318,201.4545,325.3086,211.8182,326.5536,222.1818,325.3697,232.5455,325.8022,242.9091,326.4319,253.2727,325.9142,263.6364,326.0682,274,326,273.9894,326,274.0595,333.2703,274.0797,340.5406,274.1952,347.8109,274.2237,355.0813,274,362.3516,274.1601,362.5117,272.06,364.4116,270.1093,366.4608,268.1655,368.5171,265.83,370.1816,264,372.3516,264,373.0301,253.6364,372.0551,243.2727,372.8854,232.9091,371.8565,222.5455,372.2831,212.1818,373.0932,201.8182,372.3028,191.4545,372.4569,181.0909,372.6902,170.7273,372.7678,160.3636,372.3477,150,372.3516,150.0957,372.3516,149.8092,365.0813,150.0948,357.8109,150.1827,350.5406,150.1482,343.2703,150,336" style="stroke: #000000; stroke-width: 1.5;"/><path d="M264,336 L264.0661,336.0661 L265.6698,334.0698 L267.6607,332.4607 L269.5256,330.7256 L270.9758,328.5758 L273,327 " fill="#F8F8F8" style="stroke: #000000; stroke-width: 1.5;"/><path d="M150,336 L150,336.2802 L160.3636,335.4476 L170.7273,336.2577 L181.0909,336.5329 L191.4545,335.0488 L201.8182,335.8964 L212.1818,335.4313 L222.5455,335.4887 L232.9091,335.9091 L243.2727,335.0782 L253.6364,336.7382 L264,336 " fill="#F8F8F8" style="stroke: #000000; stroke-width: 1.5;"/><path d="M264,336 L264.0934,336 L263.8159,343.2703 L264.0859,350.5406 L264.1776,357.8109 L263.6829,365.0813 L264,372.3516 " fill="#F8F8F8" style="stroke: #000000; stroke-width: 1.5;"/><text fill="#000000" font-family="sans-serif" font-size="13" lengthAdjust="spacingAndGlyphs" textLength="44" x="185" y="359.4951">Domain</text><!--link Infrastructure to UI--><path d="M172.915,54.056 L173.0959,54.27 L165.1291,59.9157 L158.223,66.8159 L150.9714,73.3076 L142.584,78.4559 L135.702,85.3847 L127.9725,91.3111 L120.5803,97.6364 L113.4225,104.239 L106.052,110.59 " fill="none" style="stroke: #383838; stroke-width: 1.0; stroke-dasharray: 7.0,7.0;"/><polygon fill="#383838" points="102.0475,113.976,102.0671,114.0433,103.8999,113.292,105.8476,112.9351,107.7579,112.4498,109.545,111.5422,111.5026,111.2191,111.5005,111.1933,110.3633,110.9831,109.2371,110.9031,108.1184,110.9135,106.9737,110.6122,105.8655,110.7475,106.0494,110.7629,105.7504,109.6026,105.9884,108.4872,106.2919,107.3772,106.2142,106.2354,106.337,105.1103,106.3575,105.1203,105.4696,106.8788,104.6748,108.6825,103.8351,110.4645,103.0811,112.2879,102.0475,113.976" style="stroke: #383838; stroke-width: 1.0;"/><!--link Infrastructure to Domain--><path d="M206.748,54.228 L206.8372,54.2557 L207.6789,57.7388 L209.0436,61.3844 L210.2381,64.977 L210.8724,68.3958 L212.282,72.0552 L212.2488,72.0457 L212.702,74.0945 L213.3226,76.1915 L214.0594,78.322 L214.3954,80.3371 L215.2929,82.5138 L215.5304,82.5782 L215.6384,84.7129 L216.4399,87.0355 L217.3259,89.3811 L217.7197,91.5932 L218.3724,93.8756 L218.4018,93.883 L218.9741,96.306 L219.6803,98.7628 L220.3219,101.2034 L221.0867,103.675 L221.4498,106.0451 L221.7403,106.1129 L222.3448,108.6902 L222.762,111.2237 L223.4535,113.8213 L224.1578,116.4218 L224.4548,118.9274 L224.1413,118.8609 L225.3222,121.6899 L225.4707,124.2999 L226.4041,127.0764 L226.5291,129.6815 L227.3168,132.4271 L227.2868,132.4214 L228.1703,135.2926 L228.3548,138.0318 L228.9518,140.8489 L229.5833,143.6725 L229.9651,146.449 L230.1477,146.4789 L230.4363,149.3385 L231.0368,152.2492 L231.1326,155.0773 L231.9813,158.0286 L232.3294,160.898 L232.5708,160.9308 L232.9271,163.8807 L233.4032,166.847 L233.3224,169.7375 L233.6499,172.6835 L234.339,175.6787 L234.0644,175.6498 L234.6299,178.6795 L234.886,181.6765 L235.5909,184.721 L235.5294,187.6845 L235.9235,190.6961 L235.7715,190.6852 L236.2425,193.7352 L236.0634,196.7384 L236.3467,199.7749 L237.0823,202.8438 L237.0123,205.8549 L237.2058,205.8616 L237.4431,208.9071 L237.0784,211.932 L237.4677,214.9828 L237.6926,218.0279 L237.5349,221.0599 L237.325,221.0584 L237.4695,224.0908 L237.5452,227.1227 L237.7561,230.1557 L237.4417,233.1847 L237.4207,236.2159 L237.626,236.2271 L237.0107,239.2048 L236.7916,242.2042 L237.1513,245.2352 L236.4454,248.2079 L236.5993,251.2277 L236.8242,251.252 L236.3707,254.192 L235.8412,257.1238 L235.4834,260.0741 L235.5226,263.0675 L235,266 L234.8689,265.9774 L234.7714,268.8728 L233.7822,271.6145 L233.8069,274.531 L233.2608,277.3491 L232.5608,280.1406 L232.6669,280.165 L231.9299,282.9851 L231.5728,285.8924 L230.8725,288.7209 L230.0286,291.5165 L229.3039,294.3394 L229.4189,294.3708 L228.5024,297.0585 L228.1198,299.8919 L227.1334,302.5606 L226.3954,305.297 L225.5757,308.0112 L225.3172,307.9319 L224.633,310.4703 L224.2602,313.1042 L223.4467,315.603 L222.4753,318.0533 L221.723,320.5708 " fill="none" style="stroke: #383838; stroke-width: 1.0; stroke-dasharray: 7.0,7.0;"/><polygon fill="#383838" points="220.034,325.7278,220.086,325.7748,221.2522,324.1738,222.7232,322.8482,224.0949,321.4329,225.1404,319.7227,226.6375,318.4207,226.6258,318.3976,225.5639,318.805,224.5611,319.3289,223.5993,319.9338,222.4961,320.2596,221.5909,320.9764,221.7555,321.0597,220.8923,319.8721,220.5098,318.9279,220.1859,318.0134,219.5208,316.9261,219.0352,315.9297,219.0578,315.932,219.2244,317.8883,219.4939,319.855,219.7138,321.8167,220.0285,323.788,220.034,325.7278" style="stroke: #383838; stroke-width: 1.0;"/><!--link Infrastructure to Application--><path d="M194.374,54.077 L194.6483,54.1345 L191.7263,64.0199 L190.4122,74.2422 L188.5746,84.3548 L185.015,94.1067 L183.7376,104.3367 L181.1754,114.2975 L179.1245,124.3655 L177.4291,134.5079 L174.5088,144.3936 L174.0265,154.7903 L170.3745,164.5227 L168.8319,174.6972 L167.5467,184.9255 L164.7641,194.8402 L162.8581,204.9385 L160.662,214.976 " fill="none" style="stroke: #383838; stroke-width: 1.0; stroke-dasharray: 7.0,7.0;"/><polygon fill="#383838" points="159.63,219.904,159.6868,219.945,160.6702,218.2256,161.9867,216.7464,163.1947,215.189,164.0459,213.3744,165.391,211.9158,165.3768,211.8942,164.3662,212.4157,163.4269,213.0466,162.5373,213.7535,161.4766,214.1985,160.6556,215.0103,160.8101,215.1113,159.8608,213.9483,159.3626,213.0801,158.9194,212.2478,158.1561,211.2063,157.5611,210.2749,157.5833,210.2797,157.9645,212.1985,158.4468,214.139,158.8804,216.0691,159.4071,218.0192,159.63,219.904" style="stroke: #383838; stroke-width: 1.0;"/><!--link UI to Application--><path d="M92.7539,160.056 L92.9771,160.2255 L98.3544,167.6738 L105.04,176.1159 L111.2996,184.2343 L116.1582,191.2886 L122.8736,199.7533 L128.5437,207.424 L135.037,215.72 " fill="none" style="stroke: #383838; stroke-width: 1.0; stroke-dasharray: 7.0,7.0;"/><polygon fill="#383838" points="138.27,219.976,138.3382,219.9921,137.6838,218.0271,137.4292,216.1562,137.0445,214.2547,136.2316,212.2524,136.0113,210.3896,135.9857,210.3861,135.7173,211.4913,135.5784,212.6142,135.5294,213.7494,135.1704,214.8423,135.2456,215.9944,135.2706,216.1773,134.0962,215.6331,132.9948,215.6228,131.9022,215.6776,130.7579,215.3535,129.6408,215.2287,129.6518,215.2486,131.3615,216.1688,133.1212,217.1797,134.8567,218.1469,136.6383,219.1976,138.27,219.976" style="stroke: #383838; stroke-width: 1.0;"/><!--link Application to Domain--><path d="M167.088,266.056 L167.3338,266.1907 L171.6484,274.9948 L177.4037,284.5886 L182.6898,293.9252 L186.4332,302.4162 L192.2213,312.0279 L197.357,321.2821 " fill="none" style="stroke: #383838; stroke-width: 1.0; stroke-dasharray: 7.0,7.0;"/><polygon fill="#383838" points="199.929,325.9761,199.9988,325.9819,199.628,324.0017,199.6664,322.0555,199.5716,320.0982,199.0385,318.1044,199.1121,316.1612,199.0872,316.1539,198.6585,317.2073,198.3551,318.2974,198.1388,319.4128,197.6223,320.4406,197.5263,321.5912,197.5781,321.7684,196.3814,321.0724,195.3358,320.8936,194.3087,320.778,193.1743,320.2952,192.0963,320.0055,192.1101,320.0236,193.6564,321.1911,195.2654,322.4411,196.8442,323.6512,198.4808,324.9372,199.929,325.9761" style="stroke: #383838; stroke-width: 1.0;"/><!--
@startuml
skinparam Handwritten true
skinparam monochrome true	
skinparam shadowing false
node "<size:13>       Infrastructure       </size>" as Infrastructure
node "<size:13>           UI           </size>" as UI
node "<size:13>   Application  </size>" as Application
node "<size:13>     Domain     </size>" as Domain
Infrastructure .down.> UI
Infrastructure .down.> Domain
Infrastructure .down.> Application
UI .down.> Application
Application .down.> Domain
@enduml

PlantUML version 1.2018.12(Sun Oct 21 08:15:15 BRST 2018)
(GPL source distribution)
Java Runtime: Java(TM) SE Runtime Environment
JVM: Java HotSpot(TM) 64-Bit Server VM
Java Version: 1.8.0_162-b12
Operating System: Windows 10
OS Version: 10.0
Default Encoding: UTF-8
Language: en
Country: US
--></g></svg>